<svg width="18" height="20" viewBox="0 0 18 20" fill="none" xmlns="http://www.w3.org/2000/svg">
<path d="M14.4617 13.6515C13.7126 13.6515 13.0358 13.9462 12.5282 14.4186L5.82084 10.5146C5.86837 10.2959 5.9064 10.0773 5.9064 9.84917C5.9064 9.62103 5.86837 9.40239 5.82084 9.18376L12.5225 5.27685C13.0358 5.75214 13.7107 6.04683 14.4617 6.04683C16.0396 6.04683 17.3134 4.77304 17.3134 3.19507C17.3134 1.6171 16.0396 0.343311 14.4617 0.343311C12.8837 0.343311 11.6099 1.6171 11.6099 3.19507C11.6099 3.42321 11.6479 3.64184 11.6955 3.86048L4.99383 7.76739C4.48052 7.29209 3.8056 6.99741 3.05464 6.99741C1.47667 6.99741 0.202881 8.2712 0.202881 9.84917C0.202881 11.4271 1.47667 12.7009 3.05464 12.7009C3.8056 12.7009 4.48052 12.4062 4.99383 11.931L11.6936 15.8455C11.64 16.0607 11.612 16.2815 11.6099 16.5033C11.6099 17.0673 11.7772 17.6187 12.0905 18.0876C12.4039 18.5566 12.8493 18.9221 13.3703 19.1379C13.8914 19.3538 14.4648 19.4103 15.018 19.3002C15.5712 19.1902 16.0793 18.9186 16.4782 18.5198C16.877 18.1209 17.1486 17.6128 17.2586 17.0596C17.3687 16.5064 17.3122 15.933 17.0963 15.4119C16.8805 14.8909 16.515 14.4455 16.046 14.1321C15.577 13.8188 15.0257 13.6515 14.4617 13.6515Z" fill="white"/>
</svg>
