<svg width="39" height="40" viewBox="0 0 39 40" fill="none" xmlns="http://www.w3.org/2000/svg">
<path d="M33.5895 2.34375C32.6631 2.34375 31.7946 2.57414 31.0456 2.97437V1.17188C31.0456 0.524687 30.4762 0 29.7737 0H9.42327C8.72076 0 8.15129 0.524687 8.15129 1.17188V2.98867C7.39637 2.57953 6.51799 2.34375 5.5806 2.34375C2.77529 2.34375 0.492981 4.44656 0.492981 7.03125C0.492981 9.00273 1.12707 10.9077 2.32664 12.5402C4.36881 15.3193 6.8871 16.0405 8.9709 16.8084C10.1724 19.5653 12.6022 21.7502 15.6331 22.7846L14.6952 28.2812H14.5109C12.4069 28.2812 10.6952 29.8584 10.6952 31.7969V37.6562H9.42327C8.72084 37.6562 8.15137 38.1809 8.15137 38.8281C8.15137 39.4753 8.72084 40 9.42327 40H29.7737C30.4762 40 31.0456 39.4753 31.0456 38.8281C31.0456 38.1809 30.4762 37.6562 29.7737 37.6562H28.5018V31.7969C28.5018 29.8584 26.7901 28.2812 24.6861 28.2812H24.5018L23.564 22.7847C26.5993 21.7487 29.0318 19.5591 30.2315 16.7966C32.2 16.0711 34.7804 15.3478 36.8435 12.5402C38.0431 10.9077 38.6772 9.00266 38.6772 7.03125C38.6771 4.44656 36.3948 2.34375 33.5895 2.34375ZM8.14187 13.9787C5.04063 12.8357 3.03679 10.1087 3.03679 7.03125C3.03679 5.73891 4.17794 4.6875 5.5806 4.6875C6.98325 4.6875 8.12441 5.73891 8.12441 7.03125C8.12441 7.11367 8.13382 7.19398 8.15137 7.27156V12.8906C8.15137 13.2673 8.17333 13.6392 8.21539 14.0058L8.14187 13.9787ZM25.958 37.6562H13.239V35.3125H25.958V37.6562ZM24.6861 30.625C25.3875 30.625 25.958 31.1507 25.958 31.7969V32.9688H13.239V31.7969C13.239 31.1507 13.8096 30.625 14.5109 30.625C15.2009 30.625 23.0678 30.625 24.6861 30.625ZM17.2702 28.2812L18.1119 23.3487C18.5986 23.4071 19.0947 23.4375 19.5985 23.4375C20.1023 23.4375 20.5984 23.407 21.0851 23.3487L21.9268 28.2812H17.2702ZM28.5018 12.8906C28.5018 17.4138 24.5078 21.0938 19.5985 21.0938C14.6892 21.0938 10.6952 17.4138 10.6952 12.8906V7.03125H28.5018V12.8906ZM28.5018 4.6875H10.6952V2.34375H28.5018V4.6875ZM31.0281 13.9787L30.9829 13.9953C31.0241 13.6322 31.0456 13.2637 31.0456 12.8906V7.03125C31.0456 5.73891 32.1868 4.6875 33.5895 4.6875C34.9921 4.6875 36.1333 5.73891 36.1333 7.03125C36.1333 10.1087 34.1294 12.8358 31.0281 13.9787Z" fill="#3A3A3A"/>
</svg>
