<svg width="44" height="38" viewBox="0 0 44 38" fill="none" xmlns="http://www.w3.org/2000/svg">
<path d="M39.7576 19.7346V1.5198C39.7576 0.86997 39.1962 0.34314 38.5038 0.34314H4.91219C4.21977 0.34314 3.6584 0.86997 3.6584 1.5198V21.1867C3.05358 21.2694 2.46229 21.4898 1.93921 21.8542C0.290234 22.9516 -0.0997765 25.4073 1.28148 26.9218L6.92878 33.347C10.4245 37.1866 14.138 37.657 19.6585 37.657C24.3958 37.657 26.5138 37.6766 30.6425 36.7937L34.6628 35.8913C35.3147 36.7456 36.3496 37.299 37.513 37.299H39.4935C41.4613 37.299 43.0622 35.7163 43.0622 33.7708V23.2523C43.0623 21.3947 41.6024 19.8688 39.7576 19.7346ZM34.1221 22.1551L32.4515 21.3588C29.7048 20.0577 26.5291 20.0095 23.739 21.2269C22.9778 21.5079 21.3176 22.4506 20.4564 22.4191H14.6595C12.7367 22.4191 11.1723 23.8872 11.1723 25.6918V26.5499C11.1616 26.5392 11.1503 26.5291 11.1397 26.5182L7.00008 22.3013C6.74957 22.0462 6.46814 21.8326 6.16606 21.6613V9.98736H16.4265V14.3007C16.4265 14.9505 16.9878 15.4773 17.6802 15.4773H25.5917C26.2841 15.4773 26.8455 14.9505 26.8455 14.3007V9.98736H37.2501V19.7346C35.7852 19.8408 34.5636 20.8243 34.1221 22.1551ZM18.9339 9.98736H24.3378V13.124H18.9339V9.98736ZM37.25 7.63404H26.8455V2.69646H37.2501V7.63404H37.25ZM24.3379 2.69646V7.63412H18.934V2.69646H24.3379ZM16.4264 2.69646V7.63412H6.16598V2.69646H16.4264ZM30.0606 34.5046C26.2466 35.3244 23.9496 35.2912 19.7034 35.2912C14.5211 35.2912 12.0171 35.2126 8.86329 31.8494L3.21598 25.4243C2.23369 24.2238 4.01289 22.8067 5.15584 23.8957L9.29542 28.1127C10.3895 29.1961 11.7662 29.7923 13.4631 29.8274H24.9401C25.6325 29.8274 26.1939 29.3006 26.1939 28.6507C26.1939 28.0009 25.6325 27.4741 24.9401 27.4741H13.6798V25.6916C13.6798 25.1847 14.1192 24.7722 14.6595 24.7722H20.4563C21.7622 24.86 23.6472 23.8366 24.7961 23.3607C26.8858 22.4489 29.2643 22.485 31.3188 23.4581L33.9445 24.7098V33.6326L30.0606 34.5046ZM40.5547 33.7707C40.5547 34.4186 40.0787 34.9456 39.4936 34.9456H37.5131C36.928 34.9456 36.4521 34.4186 36.4521 33.7707V23.2523C36.4521 22.6044 36.9281 22.0773 37.5131 22.0773H39.4936C40.0787 22.0773 40.5547 22.6044 40.5547 23.2523V33.7707Z" fill="#3A3A3A"/>
</svg>
