<svg width="15" height="17" viewBox="0 0 15 17" fill="none" xmlns="http://www.w3.org/2000/svg">
<path d="M10.7502 11.3375L10.2618 12.1249C10.1643 12.2821 10.0354 12.4162 9.86548 12.4644C9.30896 12.6225 7.83148 12.6939 5.58205 10.276C3.33263 7.85816 3.39902 6.27002 3.54607 5.67182C3.59096 5.4892 3.71573 5.35063 3.86195 5.24585L4.5945 4.72091C5.1399 4.33009 5.28728 3.53802 4.92368 2.95177L3.54013 0.721056C3.22277 0.209359 2.61094 0.0138629 2.08506 0.256117L1.46094 0.543627C0.986822 0.762036 0.60007 1.15401 0.369385 1.64993C0.176656 2.06425 0.0272765 2.50056 0.00703714 2.96327C-0.0567452 4.42147 0.240725 8.01403 3.96359 12.0157C7.68646 16.0173 11.0287 16.337 12.3853 16.2685C12.8158 16.2467 13.2217 16.0862 13.6072 15.879C14.0686 15.631 14.4332 15.2153 14.6364 14.7057L14.9039 14.0348C15.1293 13.4696 14.9474 12.812 14.4714 12.4708L12.396 10.9837C11.8506 10.5928 11.1138 10.7513 10.7502 11.3375Z" fill="#898989"/>
</svg>
