<svg width="44" height="40" viewBox="0 0 44 40" fill="none" xmlns="http://www.w3.org/2000/svg">
<path d="M41.0178 14.1741C40.4554 12.5397 40.6951 10.0864 39.2333 8.19207C37.76 6.28286 35.1976 5.7402 33.7507 4.74707C32.3191 3.76442 30.9872 1.62606 28.5789 0.888559C26.2386 0.17184 23.8455 1.14442 21.9899 1.14442C20.1346 1.14442 17.7417 0.171606 15.401 0.888481C12.9932 1.62582 11.6601 3.76465 10.2294 4.74684C8.78408 5.73879 6.21977 6.28293 4.74674 8.19184C3.28619 10.0846 3.52353 12.5436 2.96212 14.174C2.42784 15.7258 0.679016 17.5882 0.679016 20.0001C0.679016 22.4135 2.42585 24.2687 2.96212 25.8261C3.52452 27.4605 3.28478 29.9139 4.74657 31.8082C6.21977 33.7175 8.78208 34.26 10.2291 35.2532C11.6606 36.2357 12.9927 38.3743 15.401 39.1117C17.7397 39.8279 20.1366 38.8558 21.9899 38.8558C23.8407 38.8558 26.2432 39.8269 28.5789 39.1118C30.9868 38.3744 32.319 36.2361 33.7505 35.2534C35.1958 34.2614 37.7601 33.7173 39.2331 31.8084C40.6938 29.9156 40.4563 27.4568 41.0178 25.8262C41.552 24.2743 43.3009 22.4119 43.3009 20.0001C43.3009 17.5869 41.5545 15.7322 41.0178 14.1741ZM37.8493 24.8653C37.1938 26.7696 37.3655 28.9007 36.5364 29.9753C35.6961 31.0641 33.4885 31.5614 31.7851 32.7308C30.1002 33.8871 28.9194 35.7202 27.546 36.1407C26.2467 36.5387 24.1293 35.7307 21.99 35.7307C19.8351 35.7307 17.7395 36.5404 16.434 36.1407C15.0607 35.7202 13.8816 33.8884 12.1949 32.7307C10.5015 31.5685 8.28136 31.0609 7.44349 29.9751C6.61702 28.9042 6.78227 26.7582 6.1307 24.8654C5.49204 23.0107 4.00885 21.4049 4.00885 20.0001C4.00885 18.594 5.49071 16.9936 6.13053 15.135C6.7861 13.2307 6.61436 11.0994 7.44349 10.025C8.28327 8.93684 10.4925 8.43786 12.1949 7.26942C13.885 6.10934 15.0585 4.28067 16.4338 3.8595C17.732 3.462 19.8564 4.26957 21.9899 4.26957C24.1487 4.26957 26.2391 3.45926 27.5459 3.8595C28.919 4.27997 30.0992 6.11247 31.7851 7.2695C33.4782 8.43176 35.6985 8.93934 36.5364 10.025C37.363 11.0962 37.1969 13.24 37.8492 15.1348V15.1349C38.4878 16.9895 39.971 18.5954 39.971 20.0001C39.971 21.4063 38.4892 23.0066 37.8493 24.8653ZM29.6605 14.9849C30.3107 15.5951 30.3107 16.5844 29.6605 17.1946L21.3271 25.0154C20.6768 25.6256 19.6226 25.6255 18.9724 25.0154L14.3195 20.6486C13.6693 20.0384 13.6692 19.0491 14.3194 18.4389C14.9697 17.8288 16.024 17.8287 16.6739 18.4389L20.1497 21.7008L27.3058 14.985C27.956 14.3747 29.0102 14.3747 29.6605 14.9849Z" fill="#3A3A3A"/>
</svg>
