<svg width="38" height="40" viewBox="0 0 38 40" fill="none" xmlns="http://www.w3.org/2000/svg">
<path d="M36.4811 15.9752C36.201 7.12165 28.4402 0 18.9396 0C9.43905 0 1.67827 7.12165 1.39806 15.9752L0.135864 17.1598V25.1932L1.38945 26.3696V31.8431C1.38945 35.0435 4.16371 37.6471 7.5738 37.6471H9.12657C9.64405 39.0164 11.0374 40 12.6717 40H15.1789C16.8142 40 18.2084 39.015 18.725 37.6442C18.7966 37.6454 18.8684 37.6471 18.9396 37.6471C24.9934 37.6471 30.0587 33.5987 31.2234 28.2353H34.5019L37.7434 25.1932V17.1598L36.4811 15.9752ZM18.9396 2.35294C26.3801 2.35294 32.5754 7.44933 33.7725 14.1176H31.2234C30.0587 8.7542 24.9934 4.70588 18.9396 4.70588C12.8858 4.70588 7.8205 8.7542 6.65584 14.1176H4.10672C5.30389 7.44933 11.4991 2.35294 18.9396 2.35294ZM28.651 14.1176C24.5986 14.1063 21.7363 14.3379 19.3764 11.1004L18.2304 9.52839L17.2456 11.1938C15.8107 13.6204 13.8782 14.1176 11.4181 14.1176H9.22828C10.3444 10.0629 14.2752 7.05882 18.9396 7.05882C23.604 7.05882 27.5349 10.0629 28.651 14.1176ZM6.40378 25.8824H4.41585L2.64303 24.2186V18.1344L4.41585 16.4706H6.40378V25.8824ZM3.89662 31.8431V28.2353H6.65341C7.12535 30.4294 8.25449 32.4435 9.92727 34.0611C9.5766 34.4127 9.30157 34.8311 9.12657 35.2941H7.5738C5.54617 35.2941 3.89662 33.746 3.89662 31.8431ZM15.1789 37.6471H12.6717C11.9804 37.6471 11.4181 37.1194 11.4181 36.4706C11.4181 35.8219 11.9804 35.2941 12.6717 35.2941H15.1789C15.8701 35.2941 16.4325 35.8219 16.4325 36.4706C16.4325 37.1194 15.8701 37.6471 15.1789 37.6471ZM28.9683 25.8824C28.9683 31.072 24.4694 35.2941 18.9396 35.2941C18.8678 35.2941 18.7953 35.2928 18.7229 35.2912C18.2046 33.9234 16.812 32.9412 15.1789 32.9412C12.6048 32.9465 12.6459 32.9291 12.325 32.9568C10.1487 31.1665 8.91095 28.6166 8.91095 25.8824V16.4706H11.4181C13.6367 16.4706 16.3386 16.1273 18.4301 13.7384C21.1896 16.4524 24.5619 16.4706 27.5892 16.4706H28.9683V25.8824ZM35.2362 24.2186L33.4634 25.8824H31.4755V16.4706H33.4634L35.2362 18.1344V24.2186Z" fill="#3A3A3A"/>
</svg>
