<svg width="25" height="25" viewBox="0 0 25 25" fill="none" xmlns="http://www.w3.org/2000/svg">
<path d="M8.66589 12.8134C8.66589 10.6339 10.4334 8.86651 12.6142 8.86651C14.7951 8.86651 16.5635 10.6339 16.5635 12.8134C16.5635 14.993 14.7951 16.7603 12.6142 16.7603C10.4334 16.7603 8.66589 14.993 8.66589 12.8134ZM6.53099 12.8134C6.53099 16.1712 9.25445 18.893 12.6142 18.893C15.974 18.893 18.6975 16.1712 18.6975 12.8134C18.6975 9.45566 15.974 6.73383 12.6142 6.73383C9.25445 6.73383 6.53099 9.45566 6.53099 12.8134ZM17.5167 6.49277C17.5165 6.77378 17.5998 7.0485 17.7559 7.28221C17.912 7.51592 18.134 7.69811 18.3937 7.80575C18.6535 7.91339 18.9393 7.94164 19.2151 7.88693C19.4909 7.83221 19.7442 7.697 19.9431 7.49838C20.142 7.29976 20.2775 7.04666 20.3325 6.77108C20.3874 6.4955 20.3594 6.20981 20.2519 5.95016C20.1444 5.6905 19.9623 5.46854 19.7286 5.31233C19.4948 5.15612 19.22 5.07268 18.9389 5.07257H18.9383C18.5614 5.07274 18.2 5.22241 17.9334 5.48869C17.6669 5.75498 17.517 6.11611 17.5167 6.49277ZM7.82808 22.4507C6.67306 22.3981 6.04527 22.2059 5.62807 22.0434C5.07496 21.8282 4.68031 21.5719 4.26539 21.1578C3.85046 20.7437 3.59362 20.3497 3.37924 19.7969C3.21661 19.3801 3.02421 18.7525 2.97171 17.5982C2.91427 16.3502 2.90281 15.9753 2.90281 12.8135C2.90281 9.65172 2.91522 9.27787 2.97171 8.02882C3.02431 6.87449 3.21812 6.24812 3.37924 5.83012C3.59457 5.27735 3.85103 4.88294 4.26539 4.46826C4.67975 4.05359 5.07401 3.7969 5.62807 3.58265C6.04508 3.42011 6.67306 3.22783 7.82808 3.17536C9.07684 3.11796 9.45196 3.1065 12.6142 3.1065C15.7765 3.1065 16.152 3.11891 17.4018 3.17536C18.5568 3.22793 19.1836 3.42163 19.6018 3.58265C20.1549 3.7969 20.5496 4.05416 20.9645 4.46826C21.3794 4.88237 21.6353 5.27735 21.8506 5.83012C22.0133 6.24688 22.2057 6.87449 22.2582 8.02882C22.3156 9.27787 22.3271 9.65172 22.3271 12.8135C22.3271 15.9753 22.3156 16.3492 22.2582 17.5982C22.2056 18.7525 22.0122 19.38 21.8506 19.7969C21.6353 20.3497 21.3788 20.7441 20.9645 21.1578C20.5501 21.5715 20.1549 21.8282 19.6018 22.0434C19.1848 22.206 18.5568 22.3982 17.4018 22.4507C16.153 22.5081 15.7779 22.5196 12.6142 22.5196C9.45054 22.5196 9.07646 22.5081 7.82808 22.4507ZM7.72999 1.04533C6.46882 1.10273 5.60703 1.30259 4.85442 1.59527C4.07499 1.89751 3.41516 2.303 2.75581 2.96092C2.09646 3.61883 1.69177 4.2793 1.38934 5.05826C1.09649 5.8109 0.896512 6.6717 0.839079 7.93211C0.780697 9.19452 0.767334 9.59811 0.767334 12.8134C0.767334 16.0287 0.780697 16.4323 0.839079 17.6947C0.896512 18.9552 1.09649 19.8159 1.38934 20.5686C1.69177 21.3471 2.09655 22.0083 2.75581 22.6659C3.41507 23.3235 4.07499 23.7285 4.85442 24.0316C5.60845 24.3242 6.46882 24.5241 7.72999 24.5815C8.99381 24.6389 9.39699 24.6532 12.6142 24.6532C15.8315 24.6532 16.2353 24.6398 17.4985 24.5815C18.7597 24.5241 19.6209 24.3242 20.374 24.0316C21.153 23.7285 21.8133 23.3238 22.4726 22.6659C23.132 22.008 23.5358 21.3471 23.8391 20.5686C24.132 19.8159 24.3329 18.9551 24.3894 17.6947C24.4468 16.4314 24.4602 16.0287 24.4602 12.8134C24.4602 9.59811 24.4468 9.19452 24.3894 7.93211C24.3319 6.6716 24.132 5.81042 23.8391 5.05826C23.5358 4.27977 23.1309 3.61987 22.4726 2.96092C21.8143 2.30196 21.153 1.89751 20.375 1.59527C19.6209 1.30259 18.7596 1.10179 17.4994 1.04533C16.2362 0.987935 15.8324 0.973633 12.6152 0.973633C9.39793 0.973633 8.99381 0.986988 7.72999 1.04533Z" fill="#B0B0B0"/>
</svg>
