<svg width="15" height="15" viewBox="0 0 15 15" fill="none" xmlns="http://www.w3.org/2000/svg">
<path d="M10.7502 10.4055L10.2618 11.1381C10.1643 11.2843 10.0354 11.409 9.86548 11.4539C9.30896 11.601 7.83148 11.6674 5.58205 9.41797C3.33263 7.16854 3.39902 5.69104 3.54607 5.13452C3.59096 4.96462 3.71573 4.8357 3.86195 4.73822L4.5945 4.24985C5.1399 3.88625 5.28728 3.14936 4.92368 2.60396L3.54013 0.528639C3.22277 0.0525889 2.61094 -0.129288 2.08506 0.0960897L1.46094 0.36357C0.986822 0.566765 0.60007 0.931434 0.369385 1.3928C0.176656 1.77826 0.0272765 2.18417 0.00703714 2.61465C-0.0567452 3.97127 0.240725 7.31356 3.96359 11.0364C7.68646 14.7593 11.0287 15.0567 12.3853 14.993C12.8158 14.9727 13.2217 14.8233 13.6072 14.6306C14.0686 14.3999 14.4332 14.0132 14.6364 13.5391L14.9039 12.9149C15.1293 12.3891 14.9474 11.7772 14.4714 11.4599L12.396 10.0763C11.8506 9.71272 11.1138 9.8601 10.7502 10.4055Z" fill="#898989"/>
</svg>
