<svg width="21" height="18" viewBox="0 0 21 18" fill="none" xmlns="http://www.w3.org/2000/svg">
<path d="M20.5215 2.44974C19.8659 2.73188 19.1767 2.92834 18.4709 3.03428C18.8009 2.97771 19.2864 2.38375 19.4797 2.14334C19.7733 1.7807 19.9971 1.36672 20.1397 0.922423C20.1397 0.889425 20.1727 0.842286 20.1397 0.818716C20.123 0.809639 20.1044 0.804882 20.0855 0.804882C20.0665 0.804882 20.0479 0.809639 20.0312 0.818716C19.2649 1.23374 18.4492 1.5505 17.6036 1.76151C17.5741 1.77051 17.5427 1.77132 17.5128 1.76384C17.4829 1.75637 17.4556 1.7409 17.4339 1.71908C17.368 1.6407 17.2972 1.56669 17.2217 1.49753C16.8768 1.1885 16.4855 0.935579 16.0621 0.748006C15.4905 0.513523 14.8732 0.411974 14.2567 0.451027C13.6584 0.488809 13.0743 0.649267 12.5408 0.922423C12.0153 1.21041 11.5535 1.60165 11.1832 2.07263C10.7935 2.55739 10.5122 3.11996 10.3582 3.72251C10.2312 4.29566 10.2168 4.88803 10.3158 5.46668C10.3158 5.56567 10.3158 5.57981 10.2309 5.56567C6.86988 5.0707 4.11222 3.87807 1.85895 1.3184C1.75996 1.20526 1.7081 1.20526 1.62796 1.3184C0.647462 2.80801 1.12357 5.16498 2.3492 6.32933C2.51419 6.48489 2.68389 6.63574 2.86302 6.77716C2.30108 6.73726 1.75286 6.58498 1.25085 6.32933C1.15657 6.26805 1.10472 6.30105 1.1 6.41418C1.08664 6.57103 1.08664 6.72873 1.1 6.88558C1.19836 7.63726 1.4946 8.34934 1.95841 8.94899C2.42223 9.54864 3.03699 10.0143 3.73982 10.2985C3.91115 10.3719 4.08968 10.4272 4.27249 10.4635C3.75227 10.5659 3.21872 10.5818 2.69332 10.5106C2.58018 10.487 2.53776 10.5483 2.58018 10.6567C3.27313 12.5423 4.77689 13.1174 5.87995 13.438C6.0308 13.4615 6.18165 13.4615 6.35135 13.4993C6.35135 13.4993 6.35135 13.4993 6.32306 13.5275C5.9978 14.1215 4.68261 14.5222 4.07922 14.7296C2.97789 15.1252 1.80366 15.2764 0.638034 15.1727C0.454189 15.1444 0.411764 15.1491 0.364624 15.1727C0.317484 15.1963 0.364624 15.2481 0.416478 15.2953C0.652175 15.4508 0.887873 15.5875 1.133 15.7195C1.86274 16.1176 2.63422 16.4337 3.43341 16.6623C7.57226 17.8031 12.2297 16.964 15.3361 13.8764C17.778 11.4534 18.6359 8.11121 18.6359 4.7643C18.6359 4.63702 18.7915 4.5616 18.881 4.4956C19.4988 4.01426 20.0435 3.4458 20.4979 2.80801C20.5766 2.71293 20.617 2.59188 20.6111 2.4686C20.6111 2.39789 20.6111 2.41203 20.5215 2.44974Z" fill="#B0B0B0"/>
</svg>
