<svg width="25" height="25" fill="none" xmlns="http://www.w3.org/2000/svg"><path d="M8.666 12.813a3.948 3.948 0 017.898 0 3.948 3.948 0 01-7.898 0zm-2.135 0a6.081 6.081 0 006.083 6.08 6.081 6.081 0 006.084-6.08 6.081 6.081 0 00-6.084-6.08 6.081 6.081 0 00-6.083 6.08zm10.986-6.32a1.42 1.42 0 001.698 1.394 1.422 1.422 0 00-.276-2.814 1.423 1.423 0 00-1.422 1.42zM7.828 22.45c-1.155-.053-1.783-.245-2.2-.408a3.682 3.682 0 01-1.363-.885 3.652 3.652 0 01-.886-1.361c-.162-.417-.355-1.044-.407-2.199-.058-1.248-.07-1.623-.07-4.784 0-3.162.013-3.536.07-4.785.052-1.155.246-1.78.407-2.199a3.68 3.68 0 01.886-1.362 3.651 3.651 0 011.363-.885c.417-.163 1.045-.355 2.2-.408 1.249-.057 1.624-.068 4.786-.068 3.162 0 3.538.012 4.788.068 1.155.053 1.782.247 2.2.408a3.67 3.67 0 011.363.885c.414.414.67.81.886 1.362.162.417.355 1.044.407 2.199.058 1.249.07 1.623.07 4.784 0 3.162-.012 3.536-.07 4.785-.052 1.155-.246 1.782-.407 2.199a3.668 3.668 0 01-.886 1.36c-.415.415-.81.671-1.363.886-.417.163-1.045.355-2.2.408-1.249.057-1.624.069-4.788.069-3.163 0-3.538-.012-4.786-.07zM7.73 1.045c-1.261.058-2.123.258-2.876.55a5.81 5.81 0 00-2.098 1.366 5.785 5.785 0 00-1.367 2.097c-.293.753-.492 1.614-.55 2.874C.781 9.195.767 9.598.767 12.813c0 3.216.014 3.62.072 4.882.058 1.26.257 2.12.55 2.874.303.778.708 1.44 1.367 2.097a5.826 5.826 0 002.098 1.366c.754.292 1.615.492 2.876.55 1.264.057 1.667.071 4.884.071 3.217 0 3.621-.013 4.884-.072 1.262-.057 2.123-.257 2.876-.55a5.826 5.826 0 002.099-1.365 5.799 5.799 0 001.366-2.097c.293-.753.494-1.614.55-2.874.058-1.264.071-1.666.071-4.882 0-3.215-.013-3.618-.07-4.88-.058-1.261-.258-2.123-.55-2.875a5.822 5.822 0 00-1.367-2.097 5.797 5.797 0 00-2.098-1.366c-.754-.292-1.615-.493-2.876-.55-1.263-.057-1.667-.071-4.884-.071-3.217 0-3.621.013-4.885.071z" fill="#B0B0B0"/></svg>