<svg width="15" height="15" fill="none" xmlns="http://www.w3.org/2000/svg"><path d="M10.75 10.405l-.488.733c-.098.146-.227.271-.397.316-.556.147-2.034.213-4.283-2.036-2.25-2.25-2.183-3.727-2.036-4.283.045-.17.17-.3.316-.397l.732-.488c.546-.364.693-1.1.33-1.646L3.54.529A1.187 1.187 0 002.085.096l-.624.268A2.18 2.18 0 00.369 1.393c-.192.385-.342.791-.362 1.222-.064 1.356.234 4.699 3.957 8.421 3.722 3.723 7.065 4.02 8.421 3.957.43-.02.837-.17 1.222-.362a2.18 2.18 0 001.03-1.092l.267-.624a1.187 1.187 0 00-.433-1.455l-2.075-1.384a1.187 1.187 0 00-1.646.33z" fill="#898989"/></svg>