<svg width="21" height="18" fill="none" xmlns="http://www.w3.org/2000/svg"><path d="M20.521 2.45a8.306 8.306 0 01-2.05.584c.33-.056.815-.65 1.009-.89.293-.363.517-.777.66-1.222 0-.033.033-.08 0-.103a.113.113 0 00-.109 0 10.37 10.37 0 01-2.427.943.17.17 0 01-.17-.043 2.36 2.36 0 00-.212-.221 4.421 4.421 0 00-1.16-.75 4.078 4.078 0 00-1.805-.297 4.37 4.37 0 00-1.716.471c-.526.288-.988.68-1.358 1.15a4.354 4.354 0 00-.825 1.65 4.53 4.53 0 00-.042 1.745c0 .099 0 .113-.085.099C6.87 5.07 4.112 3.878 1.859 1.318c-.099-.113-.15-.113-.231 0-.98 1.49-.504 3.847.721 5.011.165.156.335.307.514.448a4.21 4.21 0 01-1.612-.448c-.094-.061-.146-.028-.151.085a2.777 2.777 0 000 .472 4.28 4.28 0 002.64 3.413c.171.073.35.128.532.165a4.823 4.823 0 01-1.579.047c-.113-.024-.155.037-.113.146.693 1.885 2.197 2.46 3.3 2.781.15.023.302.023.471.061l-.028.028c-.325.595-1.64.995-2.244 1.203a8.065 8.065 0 01-3.441.443c-.184-.029-.226-.024-.273 0-.048.023 0 .075.051.122a11.282 11.282 0 003.017 1.367c4.14 1.141 8.797.302 11.903-2.786 2.442-2.423 3.3-5.765 3.3-9.112 0-.127.155-.202.245-.268a8.091 8.091 0 001.617-1.688.495.495 0 00.113-.34c0-.07 0-.056-.09-.018z" fill="#B0B0B0"/></svg>