<svg width="16" height="12" viewBox="0 0 16 12" fill="none" xmlns="http://www.w3.org/2000/svg">
<path d="M14.9236 6.43433L10.2146 11.1622C10.0633 11.3135 9.87417 11.3892 9.68505 11.3892C9.49594 11.3892 9.30682 11.3135 9.15553 11.1622C8.85295 10.8596 8.85295 10.3868 9.15553 10.0843L12.5785 6.64235H1.53417C1.11812 6.64235 0.77771 6.30195 0.77771 5.88589C0.77771 5.46984 1.11812 5.12943 1.53417 5.12943H12.5785L9.15553 1.68753C8.85295 1.38494 8.85295 0.912153 9.15553 0.609568C9.45812 0.306983 9.93091 0.306983 10.2335 0.609568L14.9425 5.33746C15.2262 5.65895 15.2261 6.15065 14.9236 6.43433Z" fill="black"/>
</svg>
