<svg width="18" height="17" viewBox="0 0 18 17" fill="none" xmlns="http://www.w3.org/2000/svg">
<path d="M1.37818 1.3206C1.86615 0.855929 2.65731 0.855929 3.14528 1.3206L16.8403 14.3618C17.3282 14.8264 17.3282 15.5798 16.8403 16.0445C16.3523 16.5092 15.5611 16.5092 15.0732 16.0445L1.37818 3.00334C0.890215 2.53866 0.890215 1.78528 1.37818 1.3206Z" fill="#616161"/>
<path d="M16.7328 1.32075C17.2208 1.78543 17.2208 2.53881 16.7328 3.00349L3.03782 16.0447C2.54986 16.5093 1.7587 16.5093 1.27073 16.0447C0.78276 15.58 0.78276 14.8266 1.27073 14.3619L14.9657 1.32076C15.4537 0.856082 16.2448 0.856081 16.7328 1.32075Z" fill="#616161"/>
</svg>
