<svg width="22" height="22" viewBox="0 0 22 22" fill="none" xmlns="http://www.w3.org/2000/svg">
<path d="M1.2577 1.77642C1.87693 1.18675 2.88091 1.18675 3.50015 1.77642L20.8792 18.3257C21.4984 18.9154 21.4984 19.8715 20.8792 20.4611C20.2599 21.0508 19.2559 21.0508 18.6367 20.4611L1.2577 3.91182C0.63846 3.32215 0.638459 2.3661 1.2577 1.77642Z" fill="white"/>
<path d="M20.7428 1.77655C21.362 2.36623 21.362 3.32228 20.7428 3.91195L3.3638 20.4613C2.74456 21.0509 1.74058 21.0509 1.12135 20.4613C0.502111 19.8716 0.502111 18.9156 1.12135 18.3259L18.5003 1.77656C19.1196 1.18688 20.1236 1.18688 20.7428 1.77655Z" fill="white"/>
</svg>
