<svg width="38" height="40" fill="none" xmlns="http://www.w3.org/2000/svg"><path d="M32.178 2.344c-.89 0-1.723.23-2.441.63V1.172C29.737.525 29.19 0 28.517 0H8.988c-.674 0-1.22.525-1.22 1.172v1.817a5.004 5.004 0 00-2.467-.645c-2.69 0-4.88 2.103-4.88 4.686 0 1.972.608 3.877 1.76 5.51 1.959 2.778 4.375 3.5 6.374 4.267 1.153 2.757 3.485 4.942 6.393 5.977l-.9 5.496h-.177c-2.019 0-3.661 1.577-3.661 3.516v5.86H8.99c-.675 0-1.22.524-1.22 1.171S8.314 40 8.99 40h19.526c.674 0 1.22-.525 1.22-1.172 0-.647-.546-1.172-1.22-1.172h-1.22v-5.86c0-1.938-1.643-3.515-3.661-3.515h-.177l-.9-5.496c2.912-1.036 5.246-3.226 6.398-5.988 1.888-.726 4.364-1.45 6.344-4.257a9.518 9.518 0 001.76-5.509c0-2.584-2.19-4.687-4.883-4.687zM7.76 13.979c-2.976-1.143-4.899-3.87-4.899-6.948 0-1.292 1.095-2.343 2.441-2.343 1.346 0 2.441 1.05 2.441 2.343 0 .083.01.163.026.24v5.62c0 .376.021.748.061 1.115l-.07-.027zm17.095 23.677H12.651v-2.343h12.204v2.343zm-1.22-7.031c.672 0 1.22.526 1.22 1.172v1.172H12.651v-1.172c0-.646.547-1.172 1.22-1.172h9.764zm-7.116-2.344l.807-4.932a11.492 11.492 0 002.853 0l.808 4.932h-4.468zm10.777-15.39c0 4.523-3.833 8.203-8.543 8.203-4.71 0-8.543-3.68-8.543-8.203V7.03h17.086v5.86zm0-8.204H10.21V2.345h17.086v2.344zm2.424 9.292l-.043.016c.039-.363.06-.731.06-1.104V7.03c0-1.292 1.095-2.343 2.44-2.343 1.346 0 2.441 1.05 2.441 2.343 0 3.078-1.922 5.805-4.898 6.948z" fill="#3A3A3A"/></svg>