<svg width="44" height="38" fill="none" xmlns="http://www.w3.org/2000/svg"><path d="M39.89 19.735V1.52c0-.65-.561-1.177-1.254-1.177H5.045C4.353.343 3.79.87 3.79 1.52v19.667a3.935 3.935 0 00-1.719.667c-1.649 1.098-2.039 3.553-.658 5.068l5.648 6.425c3.495 3.84 7.209 4.31 12.73 4.31 4.737 0 6.855.02 10.983-.863l4.02-.903a3.579 3.579 0 002.85 1.408h1.981c1.968 0 3.569-1.583 3.569-3.528V23.252c0-1.857-1.46-3.383-3.305-3.517zm-5.635 2.42l-1.67-.796a10.52 10.52 0 00-8.713-.132c-.761.28-2.422 1.224-3.283 1.192h-5.797c-1.922 0-3.487 1.468-3.487 3.273v.858l-.033-.032-4.14-4.217a3.782 3.782 0 00-.833-.64V9.987h10.26v4.314c0 .65.562 1.176 1.254 1.176h7.912c.692 0 1.253-.527 1.253-1.176V9.987h10.405v9.748a3.568 3.568 0 00-3.128 2.42zM19.067 9.987h5.404v3.137h-5.404V9.987zm18.316-2.353H26.978V2.696h10.405v4.938zM24.47 2.696v4.938h-5.404V2.696h5.404zm-7.912 0v4.938H6.3V2.696h10.26zm13.634 31.809c-3.814.82-6.11.786-10.357.786-5.182 0-7.686-.078-10.84-3.442l-5.647-6.425c-.983-1.2.797-2.617 1.94-1.528l4.14 4.217c1.093 1.083 2.47 1.68 4.167 1.714h11.477c.692 0 1.254-.526 1.254-1.176 0-.65-.562-1.177-1.254-1.177h-11.26v-1.782c0-.507.439-.92.98-.92h5.796c1.306.088 3.19-.935 4.34-1.411a7.878 7.878 0 016.523.097l2.625 1.252v8.923l-3.884.872zm10.494-.734c0 .648-.475 1.175-1.06 1.175h-1.981c-.585 0-1.061-.527-1.061-1.175V23.252c0-.648.476-1.175 1.06-1.175h1.981c.586 0 1.062.527 1.062 1.175v10.519z" fill="#3A3A3A"/></svg>