<svg width="39" height="40" fill="none" xmlns="http://www.w3.org/2000/svg"><path d="M37.294 15.975C37.014 7.122 29.255 0 19.753 0c-9.5 0-17.261 7.122-17.542 15.975L.95 17.16v8.033l1.254 1.177v5.473c0 3.2 2.774 5.804 6.184 5.804H9.94c.517 1.37 1.91 2.353 3.545 2.353h2.507c1.636 0 3.03-.985 3.546-2.356l.215.003c6.054 0 11.12-4.048 12.284-9.412h3.278l3.242-3.042V17.16l-1.263-1.185zM19.753 2.353c7.44 0 13.636 5.096 14.833 11.765h-2.55c-1.164-5.364-6.23-9.412-12.283-9.412-6.054 0-11.12 4.048-12.284 9.412H4.92C6.117 7.449 12.313 2.353 19.753 2.353zm9.711 11.765c-4.052-.012-6.914.22-9.274-3.018l-1.146-1.572-.985 1.666c-1.435 2.426-3.367 2.924-5.828 2.924h-2.19c1.117-4.055 5.048-7.06 9.712-7.06s8.595 3.005 9.711 7.06zM7.217 25.882H5.23L3.456 24.22v-6.085l1.773-1.663h1.988v9.411zM4.71 31.843v-3.608h2.757c.472 2.194 1.6 4.209 3.274 5.826-.351.352-.626.77-.801 1.233H8.387c-2.027 0-3.677-1.548-3.677-3.45zm11.282 5.804h-2.507c-.691 0-1.253-.528-1.253-1.176 0-.65.562-1.177 1.253-1.177h2.507c.691 0 1.254.528 1.254 1.177 0 .648-.563 1.176-1.254 1.176zm13.79-11.765c0 5.19-4.5 9.412-10.029 9.412l-.217-.003c-.518-1.368-1.91-2.35-3.544-2.35-2.574.005-2.533-.012-2.854.016-2.176-1.79-3.414-4.34-3.414-7.075v-9.411h2.508c2.218 0 4.92-.344 7.011-2.733 2.76 2.714 6.132 2.733 9.16 2.733h1.379v9.411zm6.268-1.663l-1.773 1.663h-1.988v-9.411h1.988l1.773 1.663v6.085z" fill="#3A3A3A"/></svg>