<svg width="39" height="40" fill="none" xmlns="http://www.w3.org/2000/svg"><path d="M33.59 2.344a5.39 5.39 0 00-2.544.63V1.172c0-.647-.57-1.172-1.272-1.172H9.424C8.72 0 8.15.525 8.15 1.172v1.817a5.387 5.387 0 00-2.57-.645C2.775 2.344.493 4.447.493 7.03c0 1.972.634 3.877 1.834 5.51 2.042 2.778 4.56 3.5 6.644 4.267 1.201 2.757 3.631 4.942 6.662 5.977l-.938 5.496h-.184c-2.104 0-3.816 1.577-3.816 3.516v5.86H9.423c-.702 0-1.272.524-1.272 1.171S8.721 40 9.423 40h20.35c.703 0 1.273-.525 1.273-1.172 0-.647-.57-1.172-1.272-1.172h-1.272v-5.86c0-1.938-1.712-3.515-3.816-3.515h-.184l-.938-5.496c3.035-1.036 5.468-3.226 6.668-5.988 1.968-.726 4.548-1.45 6.611-4.257 1.2-1.632 1.834-3.537 1.834-5.509 0-2.584-2.282-4.687-5.087-4.687zM8.142 13.979c-3.101-1.143-5.105-3.87-5.105-6.948 0-1.292 1.14-2.343 2.544-2.343 1.402 0 2.543 1.05 2.543 2.343 0 .083.01.163.027.24v5.62c0 .376.022.748.064 1.115l-.073-.027zm17.816 23.677H13.239v-2.343h12.719v2.343zm-1.272-7.031c.701 0 1.272.526 1.272 1.172v1.172H13.239v-1.172c0-.646.57-1.172 1.272-1.172h10.175zm-7.416-2.344l.842-4.932a12.474 12.474 0 002.973 0l.842 4.932H17.27zm11.232-15.39c0 4.523-3.994 8.203-8.903 8.203-4.91 0-8.904-3.68-8.904-8.203V7.03h17.807v5.86zm0-8.204H10.695V2.345h17.807v2.344zm2.526 9.292l-.045.016c.041-.363.063-.731.063-1.104V7.03c0-1.292 1.14-2.343 2.544-2.343 1.402 0 2.543 1.05 2.543 2.343 0 3.078-2.004 5.805-5.105 6.948z" fill="#3A3A3A"/></svg>