<svg width="44" height="38" fill="none" xmlns="http://www.w3.org/2000/svg"><path d="M39.758 19.735V1.52c0-.65-.562-1.177-1.254-1.177H4.912C4.22.343 3.658.87 3.658 1.52v19.667a3.935 3.935 0 00-1.719.667C.29 22.952-.1 25.407 1.281 26.922l5.648 6.425c3.495 3.84 7.209 4.31 12.73 4.31 4.737 0 6.855.02 10.983-.863l4.02-.903a3.579 3.579 0 002.851 1.408h1.98c1.968 0 3.57-1.583 3.57-3.528V23.252c0-1.857-1.46-3.383-3.305-3.517zm-5.636 2.42l-1.67-.796a10.52 10.52 0 00-8.713-.132c-.761.28-2.421 1.224-3.283 1.192H14.66c-1.923 0-3.488 1.468-3.488 3.273v.858c-.01-.01-.022-.02-.032-.032L7 22.301a3.782 3.782 0 00-.834-.64V9.987h10.26v4.314c0 .65.562 1.176 1.254 1.176h7.912c.692 0 1.254-.527 1.254-1.176V9.987H37.25v9.748a3.568 3.568 0 00-3.128 2.42zM18.934 9.987h5.404v3.137h-5.404V9.987zM37.25 7.634H26.846V2.696H37.25v4.938zM24.338 2.696v4.938h-5.404V2.696h5.404zm-7.912 0v4.938H6.166V2.696h10.26zm13.635 31.809c-3.814.82-6.111.786-10.358.786-5.182 0-7.686-.078-10.84-3.442l-5.647-6.425c-.982-1.2.797-2.617 1.94-1.528l4.14 4.217c1.094 1.083 2.47 1.68 4.167 1.714H24.94c.692 0 1.254-.526 1.254-1.176 0-.65-.561-1.177-1.254-1.177H13.68v-1.782c0-.507.44-.92.98-.92h5.796c1.306.088 3.191-.935 4.34-1.411a7.878 7.878 0 016.523.097l2.625 1.252v8.923l-3.883.872zm10.494-.734c0 .648-.476 1.175-1.061 1.175h-1.98c-.586 0-1.062-.527-1.062-1.175V23.252c0-.648.476-1.175 1.061-1.175h1.98c.586 0 1.062.527 1.062 1.175v10.519z" fill="#3A3A3A"/></svg>