<svg width="15" height="17" fill="none" xmlns="http://www.w3.org/2000/svg"><path d="M10.75 11.338l-.488.787c-.098.157-.227.291-.397.34-.556.158-2.034.229-4.283-2.189-2.25-2.418-2.183-4.006-2.036-4.604a.758.758 0 01.316-.426l.732-.525c.546-.39.693-1.183.33-1.77L3.54.722C3.223.21 2.61.014 2.085.256l-.624.288C.987.762.6 1.154.369 1.65c-.192.414-.342.85-.362 1.313-.064 1.458.234 5.051 3.957 9.053 3.722 4.001 7.065 4.321 8.421 4.252.43-.021.837-.182 1.222-.389a2.283 2.283 0 001.03-1.173l.267-.671c.225-.565.043-1.223-.433-1.564l-2.075-1.487c-.545-.391-1.282-.233-1.646.354z" fill="#898989"/></svg>