<svg width="44" height="40" fill="none" xmlns="http://www.w3.org/2000/svg"><path d="M41.018 14.174c-.563-1.634-.323-4.088-1.785-5.982-1.473-1.91-4.035-2.452-5.482-3.445-1.432-.983-2.764-3.12-5.172-3.858-2.34-.717-4.733.255-6.59.255-1.854 0-4.247-.972-6.588-.256-2.408.738-3.74 2.877-5.172 3.859-1.445.992-4.01 1.536-5.482 3.445-1.46 1.893-1.223 4.352-1.785 5.982C2.428 15.726.68 17.588.68 20c0 2.413 1.747 4.269 2.283 5.826.563 1.634.323 4.088 1.785 5.982 1.473 1.91 4.035 2.452 5.482 3.445 1.432.983 2.764 3.121 5.172 3.859 2.339.716 4.736-.256 6.589-.256 1.85 0 4.253.97 6.589.256 2.408-.738 3.74-2.876 5.172-3.859 1.445-.992 4.01-1.536 5.482-3.445 1.46-1.892 1.223-4.351 1.785-5.982.534-1.552 2.283-3.414 2.283-5.826 0-2.413-1.747-4.268-2.283-5.826zm-3.169 10.691c-.655 1.905-.483 4.036-1.313 5.11-.84 1.09-3.047 1.586-4.75 2.756-1.686 1.156-2.867 2.99-4.24 3.41-1.3.398-3.417-.41-5.556-.41-2.155 0-4.25.81-5.556.41-1.373-.42-2.552-2.253-4.24-3.41-1.693-1.163-3.913-1.67-4.75-2.756-.827-1.07-.662-3.217-1.313-5.11-.639-1.854-2.122-3.46-2.122-4.865 0-1.406 1.482-3.006 2.122-4.865.655-1.904.483-4.036 1.312-5.11.84-1.088 3.05-1.587 4.752-2.756 1.69-1.16 2.864-2.988 4.239-3.41 1.298-.397 3.422.41 5.556.41 2.159 0 4.25-.81 5.556-.41 1.373.421 2.553 2.253 4.24 3.41 1.692 1.163 3.913 1.67 4.75 2.756.827 1.071.66 3.215 1.313 5.11.639 1.854 2.122 3.46 2.122 4.865 0 1.406-1.482 3.007-2.122 4.865zm-8.188-9.88c.65.61.65 1.6 0 2.21l-8.334 7.82c-.65.61-1.704.61-2.355 0L14.32 20.65c-.65-.61-.65-1.6 0-2.21.65-.61 1.705-.61 2.355 0l3.475 3.26 7.156-6.716c.65-.61 1.704-.61 2.354 0z" fill="#3A3A3A"/></svg>