<svg width="38" height="40" fill="none" xmlns="http://www.w3.org/2000/svg"><path d="M36.481 15.975C36.201 7.122 28.441 0 18.94 0 9.439 0 1.678 7.122 1.398 15.975L.136 17.16v8.033l1.253 1.177v5.473c0 3.2 2.775 5.804 6.185 5.804h1.553c.517 1.37 1.91 2.353 3.545 2.353h2.507c1.635 0 3.03-.985 3.546-2.356.072.001.143.003.215.003 6.053 0 11.119-4.048 12.283-9.412h3.279l3.241-3.042V17.16l-1.262-1.185zM18.94 2.353c7.44 0 13.635 5.096 14.832 11.765h-2.549c-1.164-5.364-6.23-9.412-12.283-9.412-6.054 0-11.12 4.048-12.284 9.412h-2.55C5.305 7.449 11.5 2.353 18.94 2.353zm9.711 11.765c-4.052-.012-6.915.22-9.275-3.018L18.23 9.528l-.984 1.666c-1.435 2.426-3.368 2.924-5.828 2.924h-2.19c1.116-4.055 5.047-7.06 9.712-7.06 4.664 0 8.595 3.005 9.711 7.06zM6.404 25.882H4.416L2.643 24.22v-6.085l1.773-1.663h1.988v9.411zm-2.507 5.961v-3.608h2.756c.472 2.194 1.601 4.209 3.274 5.826-.35.352-.625.77-.8 1.233H7.574c-2.028 0-3.677-1.548-3.677-3.45zm11.282 5.804h-2.507c-.692 0-1.254-.528-1.254-1.176 0-.65.562-1.177 1.254-1.177h2.507c.691 0 1.254.528 1.254 1.177 0 .648-.563 1.176-1.254 1.176zm13.79-11.765c0 5.19-4.5 9.412-10.03 9.412l-.216-.003c-.518-1.368-1.911-2.35-3.544-2.35-2.574.005-2.533-.012-2.854.016-2.176-1.79-3.414-4.34-3.414-7.075v-9.411h2.507c2.219 0 4.92-.344 7.012-2.733 2.76 2.714 6.132 2.733 9.16 2.733h1.378v9.411zm6.267-1.663l-1.773 1.663h-1.988v-9.411h1.988l1.773 1.663v6.085z" fill="#3A3A3A"/></svg>