<svg width="38" height="40" viewBox="0 0 38 40" fill="none" xmlns="http://www.w3.org/2000/svg">
<path d="M32.1775 2.34375C31.2886 2.34375 30.4553 2.57414 29.7367 2.97437V1.17188C29.7367 0.524687 29.1902 0 28.5162 0H8.98948C8.3154 0 7.76898 0.524687 7.76898 1.17188V2.98867C7.04462 2.57953 6.2018 2.34375 5.30234 2.34375C2.61058 2.34375 0.420654 4.44656 0.420654 7.03125C0.420654 9.00273 1.02908 10.9077 2.1801 12.5402C4.13961 15.3193 6.55596 16.0405 8.55542 16.8084C9.70831 19.5653 12.0397 21.7502 14.948 22.7846L14.0481 28.2812H13.8712C11.8524 28.2812 10.2099 29.8584 10.2099 31.7969V37.6562H8.98948C8.31549 37.6562 7.76906 38.1809 7.76906 38.8281C7.76906 39.4753 8.31549 40 8.98948 40H28.5162C29.1902 40 29.7367 39.4753 29.7367 38.8281C29.7367 38.1809 29.1902 37.6562 28.5162 37.6562H27.2958V31.7969C27.2958 29.8584 25.6534 28.2812 23.6346 28.2812H23.4577L22.5578 22.7847C25.4703 21.7487 27.8043 19.5591 28.9555 16.7966C30.8443 16.0711 33.3202 15.3478 35.2998 12.5402C36.4509 10.9077 37.0593 9.00266 37.0593 7.03125C37.0592 4.44656 34.8693 2.34375 32.1775 2.34375ZM7.75995 13.9787C4.78423 12.8357 2.8615 10.1087 2.8615 7.03125C2.8615 5.73891 3.95646 4.6875 5.30234 4.6875C6.64823 4.6875 7.74319 5.73891 7.74319 7.03125C7.74319 7.11367 7.75222 7.19398 7.76906 7.27156V12.8906C7.76906 13.2673 7.79013 13.6392 7.83049 14.0058L7.75995 13.9787ZM24.855 37.6562H12.6508V35.3125H24.855V37.6562ZM23.6346 30.625C24.3075 30.625 24.855 31.1507 24.855 31.7969V32.9688H12.6508V31.7969C12.6508 31.1507 13.1982 30.625 13.8712 30.625C14.5333 30.625 22.0818 30.625 23.6346 30.625ZM16.5188 28.2812L17.3264 23.3487C17.7934 23.4071 18.2695 23.4375 18.7529 23.4375C19.2362 23.4375 19.7123 23.407 20.1793 23.3487L20.9869 28.2812H16.5188ZM27.2958 12.8906C27.2958 17.4138 23.4634 21.0938 18.7529 21.0938C14.0423 21.0938 10.2099 17.4138 10.2099 12.8906V7.03125H27.2958V12.8906ZM27.2958 4.6875H10.2099V2.34375H27.2958V4.6875ZM29.7198 13.9787L29.6765 13.9953C29.716 13.6322 29.7366 13.2637 29.7366 12.8906V7.03125C29.7367 5.73891 30.8316 4.6875 32.1775 4.6875C33.5234 4.6875 34.6184 5.73891 34.6184 7.03125C34.6184 10.1087 32.6956 12.8358 29.7198 13.9787Z" fill="#3A3A3A"/>
</svg>
