<svg width="44" height="38" viewBox="0 0 44 38" fill="none" xmlns="http://www.w3.org/2000/svg">
<path d="M39.8903 19.7346V1.5198C39.8903 0.86997 39.329 0.34314 38.6365 0.34314H5.04494C4.35252 0.34314 3.79116 0.86997 3.79116 1.5198V21.1867C3.18633 21.2694 2.59504 21.4898 2.07196 21.8542C0.422986 22.9516 0.032975 25.4073 1.41423 26.9218L7.06153 33.347C10.5573 37.1866 14.2707 37.657 19.7912 37.657C24.5286 37.657 26.6466 37.6766 30.7753 36.7937L34.7956 35.8913C35.4475 36.7456 36.4824 37.299 37.6458 37.299H39.6263C41.594 37.299 43.195 35.7163 43.195 33.7708V23.2523C43.195 21.3947 41.7351 19.8688 39.8903 19.7346ZM34.2548 22.1551L32.5843 21.3588C29.8375 20.0577 26.6619 20.0095 23.8718 21.2269C23.1106 21.5079 21.4503 22.4506 20.5891 22.4191H14.7923C12.8695 22.4191 11.3051 23.8872 11.3051 25.6918V26.5499C11.2943 26.5392 11.283 26.5291 11.2724 26.5182L7.13283 22.3013C6.88232 22.0462 6.60089 21.8326 6.29881 21.6613V9.98736H16.5592V14.3007C16.5592 14.9505 17.1206 15.4773 17.813 15.4773H25.7245C26.4169 15.4773 26.9782 14.9505 26.9782 14.3007V9.98736H37.3828V19.7346C35.9179 19.8408 34.6964 20.8243 34.2548 22.1551ZM19.0667 9.98736H24.4706V13.124H19.0667V9.98736ZM37.3827 7.63404H26.9782V2.69646H37.3828V7.63404H37.3827ZM24.4707 2.69646V7.63412H19.0668V2.69646H24.4707ZM16.5591 2.69646V7.63412H6.29873V2.69646H16.5591ZM30.1934 34.5046C26.3794 35.3244 24.0823 35.2912 19.8362 35.2912C14.6539 35.2912 12.1499 35.2126 8.99604 31.8494L3.34874 25.4243C2.36644 24.2238 4.14564 22.8067 5.28859 23.8957L9.42818 28.1127C10.5222 29.1961 11.899 29.7923 13.5958 29.8274H25.0728C25.7653 29.8274 26.3266 29.3006 26.3266 28.6507C26.3266 28.0009 25.7653 27.4741 25.0728 27.4741H13.8126V25.6916C13.8126 25.1847 14.252 24.7722 14.7922 24.7722H20.589C21.895 24.86 23.7799 23.8366 24.9289 23.3607C27.0185 22.4489 29.397 22.485 31.4515 23.4581L34.0773 24.7098V33.6326L30.1934 34.5046ZM40.6875 33.7707C40.6875 34.4186 40.2115 34.9456 39.6264 34.9456H37.6459C37.0608 34.9456 36.5848 34.4186 36.5848 33.7707V23.2523C36.5848 22.6044 37.0609 22.0773 37.6459 22.0773H39.6264C40.2115 22.0773 40.6875 22.6044 40.6875 23.2523V33.7707Z" fill="#3A3A3A"/>
</svg>
