<svg width="44" height="40" viewBox="0 0 44 40" fill="none" xmlns="http://www.w3.org/2000/svg">
<path d="M40.7809 14.1741C40.2185 12.5397 40.4582 10.0864 38.9964 8.19207C37.5232 6.28286 34.9608 5.7402 33.5139 4.74707C32.0822 3.76442 30.7503 1.62606 28.3421 0.888559C26.0018 0.17184 23.6086 1.14442 21.7531 1.14442C19.8978 1.14442 17.5048 0.171606 15.1641 0.888481C12.7563 1.62582 11.4233 3.76465 9.99251 4.74684C8.5472 5.73879 5.9829 6.28293 4.50986 8.19184C3.04931 10.0846 3.28665 12.5436 2.72524 14.174C2.19097 15.7258 0.442139 17.5882 0.442139 20.0001C0.442139 22.4135 2.18897 24.2687 2.72524 25.8261C3.28765 27.4605 3.0479 29.9139 4.5097 31.8082C5.9829 33.7175 8.5452 34.26 9.99226 35.2532C11.4237 36.2357 12.7559 38.3743 15.1641 39.1117C17.5028 39.8279 19.8997 38.8558 21.7531 38.8558C23.6039 38.8558 26.0063 39.8269 28.3421 39.1118C30.7499 38.3744 32.0821 36.2361 33.5136 35.2534C34.9589 34.2614 37.5232 33.7173 38.9963 31.8084C40.4569 29.9156 40.2194 27.4568 40.7809 25.8262C41.3152 24.2743 43.064 22.4119 43.064 20.0001C43.064 17.5869 41.3176 15.7322 40.7809 14.1741ZM37.6125 24.8653C36.9569 26.7696 37.1286 28.9007 36.2995 29.9753C35.4592 31.0641 33.2516 31.5614 31.5482 32.7308C29.8634 33.8871 28.6825 35.7202 27.3091 36.1407C26.0098 36.5387 23.8924 35.7307 21.7531 35.7307C19.5982 35.7307 17.5026 36.5404 16.1971 36.1407C14.8239 35.7202 13.6447 33.8884 11.958 32.7307C10.2646 31.5685 8.04448 31.0609 7.20661 29.9751C6.38015 28.9042 6.54539 26.7582 5.89382 24.8654C5.25516 23.0107 3.77197 21.4049 3.77197 20.0001C3.77197 18.594 5.25383 16.9936 5.89366 15.135C6.54922 13.2307 6.37748 11.0994 7.20661 10.025C8.04639 8.93684 10.2557 8.43786 11.958 7.26942C13.6482 6.10934 14.8216 4.28067 16.1969 3.8595C17.4951 3.462 19.6195 4.26957 21.753 4.26957C23.9118 4.26957 26.0022 3.45926 27.3091 3.8595C28.6821 4.27997 29.8623 6.11247 31.5482 7.2695C33.2413 8.43176 35.4617 8.93934 36.2995 10.025C37.1262 11.0962 36.96 13.24 37.6123 15.1348V15.1349C38.251 16.9895 39.7342 18.5954 39.7342 20.0001C39.7342 21.4063 38.2523 23.0066 37.6125 24.8653ZM29.4236 14.9849C30.0738 15.5951 30.0738 16.5844 29.4236 17.1946L21.0902 25.0154C20.4399 25.6256 19.3857 25.6255 18.7356 25.0154L14.0826 20.6486C13.4324 20.0384 13.4323 19.0491 14.0825 18.4389C14.7328 17.8288 15.7871 17.8287 16.4371 18.4389L19.9128 21.7008L27.0689 14.985C27.7191 14.3747 28.7734 14.3747 29.4236 14.9849Z" fill="#3A3A3A"/>
</svg>
