<svg width="39" height="40" viewBox="0 0 39 40" fill="none" xmlns="http://www.w3.org/2000/svg">
<path d="M37.2945 15.9752C37.0143 7.12165 29.2536 0 19.753 0C10.2524 0 2.49163 7.12165 2.21141 15.9752L0.949219 17.1598V25.1932L2.2028 26.3696V31.8431C2.2028 35.0435 4.97707 37.6471 8.38715 37.6471H9.93992C10.4574 39.0164 11.8508 40 13.4851 40H15.9922C17.6276 40 19.0217 39.015 19.5384 37.6442C19.61 37.6454 19.6818 37.6471 19.753 37.6471C25.8068 37.6471 30.8721 33.5987 32.0368 28.2353H35.3152L38.5567 25.1932V17.1598L37.2945 15.9752ZM19.753 2.35294C27.1935 2.35294 33.3887 7.44933 34.5859 14.1176H32.0368C30.8721 8.7542 25.8068 4.70588 19.753 4.70588C13.6992 4.70588 8.63386 8.7542 7.46919 14.1176H4.92007C6.11724 7.44933 12.3125 2.35294 19.753 2.35294ZM29.4643 14.1176C25.412 14.1063 22.5496 14.3379 20.1897 11.1004L19.0438 9.52839L18.059 11.1938C16.624 13.6204 14.6916 14.1176 12.2315 14.1176H10.0416C11.1577 10.0629 15.0886 7.05882 19.753 7.05882C24.4174 7.05882 28.3482 10.0629 29.4643 14.1176ZM7.21714 25.8824H5.22921L3.45639 24.2186V18.1344L5.22921 16.4706H7.21714V25.8824ZM4.70997 31.8431V28.2353H7.46677C7.9387 30.4294 9.06785 32.4435 10.7406 34.0611C10.39 34.4127 10.1149 34.8311 9.93992 35.2941H8.38715C6.35952 35.2941 4.70997 33.746 4.70997 31.8431ZM15.9922 37.6471H13.4851C12.7937 37.6471 12.2315 37.1194 12.2315 36.4706C12.2315 35.8219 12.7937 35.2941 13.4851 35.2941H15.9922C16.6835 35.2941 17.2458 35.8219 17.2458 36.4706C17.2458 37.1194 16.6835 37.6471 15.9922 37.6471ZM29.7817 25.8824C29.7817 31.072 25.2828 35.2941 19.753 35.2941C19.6811 35.2941 19.6087 35.2928 19.5363 35.2912C19.018 33.9234 17.6253 32.9412 15.9922 32.9412C13.4182 32.9465 13.4592 32.9291 13.1384 32.9568C10.962 31.1665 9.72431 28.6166 9.72431 25.8824V16.4706H12.2315C14.4501 16.4706 17.152 16.1273 19.2434 13.7384C22.003 16.4524 25.3753 16.4706 28.4025 16.4706H29.7817V25.8824ZM36.0496 24.2186L34.2768 25.8824H32.2888V16.4706H34.2768L36.0496 18.1344V24.2186Z" fill="#3A3A3A"/>
</svg>
